<svg xmlns:dc="http://purl.org/dc/elements/1.1/" xmlns:cc="http://creativecommons.org/ns#" xmlns:rdf="http://www.w3.org/1999/02/22-rdf-syntax-ns#" xmlns:svg="http://www.w3.org/2000/svg" xmlns="http://www.w3.org/2000/svg" xmlns:sodipodi="http://sodipodi.sourceforge.net/DTD/sodipodi-0.dtd" xmlns:inkscape="http://www.inkscape.org/namespaces/inkscape" version="1.1" x="0px" y="0px" viewBox="0 0 100 100"><g transform="translate(0,-952.36218)"><path style="text-indent:0;text-transform:none;direction:ltr;block-progression:tb;baseline-shift:baseline;color:#000000;enable-background:accumulate;" d="m 26.406199,961.36217 c -6.4312,0 -11.6875,5.27326 -11.6875,11.71875 l 0,31.93748 c 0,6.4455 5.2563,11.75 11.6875,11.75 l 10.4375,0 0,2.875 -26.625,0 c -2.3132,0 -4.2187,1.9135 -4.2187,4.2188 l 0,15.2812 c 0,2.3053 1.9055,4.2188 4.2187,4.2188 l 79.562502,0 c 2.3122,0 4.2188,-1.9025 4.2188,-4.2188 l 0,-15.2812 c 0,-2.3163 -1.9066,-4.2188 -4.2188,-4.2188 l -26.625,0 0,-2.875 10.4062,0 c 6.4236,0 11.7188,-5.3045 11.7188,-11.75 l 0,-31.93748 c 0,-6.44549 -5.295,-11.71875 -11.7188,-11.71875 l -47.156202,0 z m 0,4 47.156202,0 c 4.2314,0 7.7188,3.44424 7.7188,7.71875 l 0,30.09378 -62.562502,0 0,-30.09378 c 0,-4.27451 3.4445,-7.71875 7.6875,-7.71875 z m 23,42.68753 a 2.000005,2.000005 0 0 1 0.031,0 2.000005,2.000005 0 0 1 0.031,0 2.000005,2.000005 0 0 1 0.1875,0 l 0.6562,0 a 2.000005,2.000005 0 1 1 0,3.9687 l -0.6562,0 a 2.000005,2.000005 0 0 1 -0.25,-3.9687 z m -8.5625,8.7187 18.312502,0 0,2.875 -18.312502,0 0,-2.875 z m -26.5625,10.2813 a 2.000005,2.000005 0 0 1 0.1875,0 l 41.656302,0 a 2.000005,2.000005 0 1 1 0,4 l -41.656302,0 a 2.0021961,2.0021961 0 0 1 -0.1875,-4 z m 68.343802,0.3437 c 2.2397,0 4.0937,1.8772 4.0937,4.0938 0,2.2165 -1.854,4.0937 -4.0937,4.0937 -2.2394,0 -4.0626,-1.8656 -4.0626,-4.0937 0,-2.2282 1.8232,-4.0938 4.0626,-4.0938 z" fill="#000000" fill-opacity="1" fill-rule="evenodd" stroke="none" marker="none" visibility="visible" display="inline" overflow="visible"></path></g></svg>