<svg xmlns="http://www.w3.org/2000/svg" xmlns:xlink="http://www.w3.org/1999/xlink" version="1.1" x="0px" y="0px" viewBox="0 0 100 100" style="enable-background:new 0 0 100 100;" xml:space="preserve"><g><path d="M10.894,72.146h78.212c0.84,0,1.527-0.687,1.527-1.526V55.368v-7.621V17.479c0-2.099-1.718-3.815-3.816-3.815H13.183   c-2.099,0-3.814,1.717-3.814,3.815v30.268v7.621v15.251C9.368,71.459,10.055,72.146,10.894,72.146z M15.305,55.368v-7.621V19.602   h69.391v28.146v7.621v10.84H15.305V55.368z"></path><path d="M95.974,76.524H4.026c-0.84,0-1.526,0.687-1.526,1.526v3.325c0,2.728,2.232,4.96,4.96,4.96h85.08   c2.728,0,4.96-2.232,4.96-4.96v-3.325C97.5,77.211,96.813,76.524,95.974,76.524z M9.265,83.365c-1.068,0-1.935-0.867-1.935-1.936   s0.866-1.935,1.935-1.935s1.935,0.866,1.935,1.935S10.333,83.365,9.265,83.365z M16.804,83.365c-1.068,0-1.935-0.867-1.935-1.936   s0.866-1.935,1.935-1.935s1.936,0.866,1.936,1.935S17.872,83.365,16.804,83.365z M24.344,83.365c-1.068,0-1.935-0.867-1.935-1.936   s0.866-1.935,1.935-1.935s1.935,0.866,1.935,1.935S25.412,83.365,24.344,83.365z M62.617,82.268c0,0.514-0.42,0.934-0.934,0.934   H38.316c-0.514,0-0.934-0.42-0.934-0.934v-1.676c0-0.514,0.42-0.934,0.934-0.934h23.367c0.514,0,0.934,0.42,0.934,0.934V82.268z"></path></g></svg>